<svg width="42" height="42" viewBox="0 0 42 42" fill="none" xmlns="http://www.w3.org/2000/svg">
<g clip-path="url(#clip0)">
<path d="M13.3266 35.635C11.4048 37.5581 8.28713 37.5581 6.3653 35.635C4.47243 33.7434 4.44224 30.6927 6.27605 28.7643L16.6501 18.3902C13.4417 17.5323 9.88411 18.3219 7.31924 20.7612L2.70654 25.3739C-0.96116 29.2306 -0.900785 35.3321 2.88504 39.1153C6.72861 42.9615 12.964 42.9615 16.8075 39.1153L21.0605 34.8623C23.6384 32.2862 24.4882 28.6357 23.6106 25.351L13.3266 35.635Z" fill="white"/>
<path d="M39.1153 2.88504C35.3321 -0.900785 29.2307 -0.96116 25.374 2.70654L20.7613 7.31924C18.3221 9.88419 17.5324 13.4418 18.3902 16.6501L28.7643 6.27605C30.6927 4.44224 33.7434 4.47243 35.635 6.3653C37.5581 8.28713 37.5581 11.4047 35.635 13.3266L25.351 23.6106C28.6357 24.4882 32.2862 23.6385 34.8623 21.0605L39.1153 16.8075C42.9615 12.964 42.9615 6.72861 39.1153 2.88504V2.88504Z" fill="white"/>
<path d="M13.5166 28.4835C14.4775 29.4451 16.0363 29.4451 16.9972 28.4835L28.4834 16.9973C29.445 16.0364 29.445 14.4775 28.4834 13.5167C27.5376 12.5702 26.0122 12.5551 25.0481 13.4721L13.4719 25.0483C12.555 26.0124 12.5701 27.5377 13.5166 28.4835V28.4835Z" fill="white"/>
</g>
<defs>
<clipPath id="clip0">
<rect width="42" height="42" fill="white"/>
</clipPath>
</defs>
</svg>
